{
    "asset" : {
        "generator" : "Khronos glTF Blender I/O v1.4.40",
        "version" : "2.0"
    },
    "scene" : 0,
    "scenes" : [
        {
            "name" : "Scene",
            "nodes" : [
                0,
                1,
                2,
                3,
                4,
                5
            ]
        }
    ],
    "nodes" : [
        {
            "name" : "Light",
            "rotation" : [
                0.16907575726509094,
                0.7558803558349609,
                -0.27217137813568115,
                0.570947527885437
            ],
            "translation" : [
                4.076245307922363,
                5.903861999511719,
                -1.0054539442062378
            ]
        },
        {
            "mesh" : 0,
            "name" : "walk",
            "rotation" : [
                0.7071068286895752,
                0,
                0,
                0.7071067094802856
            ]
        },
        {
            "mesh" : 1,
            "name" : "floot",
            "rotation" : [
                0.7071068286895752,
                0,
                0,
                0.7071067094802856
            ]
        },
        {
            "mesh" : 2,
            "name" : "box1",
            "rotation" : [
                0.7071068286895752,
                0,
                0,
                0.7071067094802856
            ]
        },
        {
            "mesh" : 3,
            "name" : "box1_1",
            "rotation" : [
                0.7071068286895752,
                0,
                0,
                0.7071067094802856
            ]
        },
        {
            "mesh" : 4,
            "name" : "box2",
            "rotation" : [
                0.7071068286895752,
                0,
                0,
                0.7071067094802856
            ],
            "scale" : [
                2.7748594284057617,
                0.2520493268966675,
                1.475130319595337
            ],
            "translation" : [
                9.73102855682373,
                1.1657248735427856,
                8.88289737701416
            ]
        }
    ],
    "materials" : [
        {
            "doubleSided" : true,
            "name" : "lambert1",
            "pbrMetallicRoughness" : {
                "baseColorFactor" : [
                    0.5,
                    0.5,
                    0.5,
                    1
                ],
                "metallicFactor" : 0,
                "roughnessFactor" : 0.5527864098548889
            }
        },
        {
            "doubleSided" : true,
            "name" : "box1_mat",
            "pbrMetallicRoughness" : {
                "baseColorTexture" : {
                    "index" : 0,
                    "texCoord" : 0
                },
                "metallicFactor" : 0,
                "roughnessFactor" : 0.5527864098548889
            }
        },
        {
            "doubleSided" : true,
            "name" : "box2_mat",
            "pbrMetallicRoughness" : {
                "baseColorTexture" : {
                    "index" : 1,
                    "texCoord" : 0
                },
                "metallicFactor" : 0,
                "roughnessFactor" : 0.5527864098548889
            }
        }
    ],
    "meshes" : [
        {
            "name" : "\u7f51\u683c",
            "primitives" : [
                {
                    "attributes" : {
                        "POSITION" : 0,
                        "NORMAL" : 1,
                        "TEXCOORD_0" : 2
                    },
                    "indices" : 3,
                    "material" : 0
                }
            ]
        },
        {
            "name" : "\u7f51\u683c.001",
            "primitives" : [
                {
                    "attributes" : {
                        "POSITION" : 4,
                        "NORMAL" : 5,
                        "TEXCOORD_0" : 6
                    },
                    "indices" : 7,
                    "material" : 0
                }
            ]
        },
        {
            "name" : "\u7f51\u683c.002",
            "primitives" : [
                {
                    "attributes" : {
                        "POSITION" : 8,
                        "NORMAL" : 9,
                        "TEXCOORD_0" : 10
                    },
                    "indices" : 11,
                    "material" : 1
                }
            ]
        },
        {
            "name" : "\u7f51\u683c.003",
            "primitives" : [
                {
                    "attributes" : {
                        "POSITION" : 12,
                        "NORMAL" : 13,
                        "TEXCOORD_0" : 14
                    },
                    "indices" : 11,
                    "material" : 1
                }
            ]
        },
        {
            "name" : "\u7f51\u683c.004",
            "primitives" : [
                {
                    "attributes" : {
                        "POSITION" : 15,
                        "NORMAL" : 16,
                        "TEXCOORD_0" : 17
                    },
                    "indices" : 11,
                    "material" : 2
                }
            ]
        }
    ],
    "textures" : [
        {
            "sampler" : 0,
            "source" : 0
        },
        {
            "sampler" : 0,
            "source" : 1
        }
    ],
    "images" : [
        {
            "mimeType" : "image/png",
            "name" : "1640085554(1)",
            "uri" : "16400855541.png"
        },
        {
            "mimeType" : "image/png",
            "name" : "1641896992(1)",
            "uri" : "16418969921.png"
        }
    ],
    "accessors" : [
        {
            "bufferView" : 0,
            "componentType" : 5126,
            "count" : 526,
            "max" : [
                12.1600341796875,
                9.091586112976074,
                0
            ],
            "min" : [
                -11.54890251159668,
                -10.278091430664062,
                -3
            ],
            "type" : "VEC3"
        },
        {
            "bufferView" : 1,
            "componentType" : 5126,
            "count" : 526,
            "type" : "VEC3"
        },
        {
            "bufferView" : 2,
            "componentType" : 5126,
            "count" : 526,
            "type" : "VEC2"
        },
        {
            "bufferView" : 3,
            "componentType" : 5123,
            "count" : 1152,
            "type" : "SCALAR"
        },
        {
            "bufferView" : 4,
            "componentType" : 5126,
            "count" : 121,
            "max" : [
                15,
                15,
                0
            ],
            "min" : [
                -15,
                -15,
                0
            ],
            "type" : "VEC3"
        },
        {
            "bufferView" : 5,
            "componentType" : 5126,
            "count" : 121,
            "type" : "VEC3"
        },
        {
            "bufferView" : 6,
            "componentType" : 5126,
            "count" : 121,
            "type" : "VEC2"
        },
        {
            "bufferView" : 7,
            "componentType" : 5123,
            "count" : 600,
            "type" : "SCALAR"
        },
        {
            "bufferView" : 8,
            "componentType" : 5126,
            "count" : 24,
            "max" : [
                0.09901022911071777,
                1.7413151264190674,
                -1.2097938060760498
            ],
            "min" : [
                -1.9350943565368652,
                1.6776938438415527,
                -2.5368216037750244
            ],
            "type" : "VEC3"
        },
        {
            "bufferView" : 9,
            "componentType" : 5126,
            "count" : 24,
            "type" : "VEC3"
        },
        {
            "bufferView" : 10,
            "componentType" : 5126,
            "count" : 24,
            "type" : "VEC2"
        },
        {
            "bufferView" : 11,
            "componentType" : 5123,
            "count" : 36,
            "type" : "SCALAR"
        },
        {
            "bufferView" : 12,
            "componentType" : 5126,
            "count" : 24,
            "max" : [
                3.383913040161133,
                1.7413151264190674,
                -1.2097938060760498
            ],
            "min" : [
                1.3498084545135498,
                1.6776938438415527,
                -2.5368216037750244
            ],
            "type" : "VEC3"
        },
        {
            "bufferView" : 13,
            "componentType" : 5126,
            "count" : 24,
            "type" : "VEC3"
        },
        {
            "bufferView" : 14,
            "componentType" : 5126,
            "count" : 24,
            "type" : "VEC2"
        },
        {
            "bufferView" : 15,
            "componentType" : 5126,
            "count" : 24,
            "max" : [
                0.5000002384185791,
                0.5,
                0.4999997615814209
            ],
            "min" : [
                -0.4999990463256836,
                -0.4999847412109375,
                -0.5000001192092896
            ],
            "type" : "VEC3"
        },
        {
            "bufferView" : 16,
            "componentType" : 5126,
            "count" : 24,
            "type" : "VEC3"
        },
        {
            "bufferView" : 17,
            "componentType" : 5126,
            "count" : 24,
            "type" : "VEC2"
        }
    ],
    "bufferViews" : [
        {
            "buffer" : 0,
            "byteLength" : 6312,
            "byteOffset" : 0
        },
        {
            "buffer" : 0,
            "byteLength" : 6312,
            "byteOffset" : 6312
        },
        {
            "buffer" : 0,
            "byteLength" : 4208,
            "byteOffset" : 12624
        },
        {
            "buffer" : 0,
            "byteLength" : 2304,
            "byteOffset" : 16832
        },
        {
            "buffer" : 0,
            "byteLength" : 1452,
            "byteOffset" : 19136
        },
        {
            "buffer" : 0,
            "byteLength" : 1452,
            "byteOffset" : 20588
        },
        {
            "buffer" : 0,
            "byteLength" : 968,
            "byteOffset" : 22040
        },
        {
            "buffer" : 0,
            "byteLength" : 1200,
            "byteOffset" : 23008
        },
        {
            "buffer" : 0,
            "byteLength" : 288,
            "byteOffset" : 24208
        },
        {
            "buffer" : 0,
            "byteLength" : 288,
            "byteOffset" : 24496
        },
        {
            "buffer" : 0,
            "byteLength" : 192,
            "byteOffset" : 24784
        },
        {
            "buffer" : 0,
            "byteLength" : 72,
            "byteOffset" : 24976
        },
        {
            "buffer" : 0,
            "byteLength" : 288,
            "byteOffset" : 25048
        },
        {
            "buffer" : 0,
            "byteLength" : 288,
            "byteOffset" : 25336
        },
        {
            "buffer" : 0,
            "byteLength" : 192,
            "byteOffset" : 25624
        },
        {
            "buffer" : 0,
            "byteLength" : 288,
            "byteOffset" : 25816
        },
        {
            "buffer" : 0,
            "byteLength" : 288,
            "byteOffset" : 26104
        },
        {
            "buffer" : 0,
            "byteLength" : 192,
            "byteOffset" : 26392
        }
    ],
    "samplers" : [
        {
            "magFilter" : 9729,
            "minFilter" : 9986
        }
    ],
    "buffers" : [
        {
            "byteLength" : 26584,
            "uri" : "test.bin"
        }
    ]
}
